<svg aria-hidden="true" style="position:absolute;overflow:hidden" xmlns="http://www.w3.org/2000/svg"><defs><symbol id="icon-arrow" viewBox="0 0 56 32"><path fill="#4f2ee8" d="M25.397 21.134A3.675 3.675 0 0 0 28 22.219a3.67 3.67 0 0 0 2.603-1.085l16.794-16.83A3.675 3.675 0 0 1 50 3.219a3.67 3.67 0 0 1 2.603 6.255l-16.83 16.83a10.998 10.998 0 0 1-15.546 0L3.397 9.474a3.669 3.669 0 0 1-.791-3.975A3.659 3.659 0 0 1 4.59 3.5a3.651 3.651 0 0 1 2.82 0c.447.186.852.459 1.193.803l16.793 16.83z"/></symbol></defs></svg>