<svg aria-hidden="true" style="width:0;height:0;position:absolute;overflow:hidden" xmlns="http://www.w3.org/2000/svg"><defs><symbol id="icon-scroll-up" viewBox="0 0 55 32"><path fill="#fff" style="fill:var(--color1,#fff)" d="M1.091 25.309 25.527.8c.291-.291.606-.496.945-.617.339-.122.703-.183 1.091-.183s.752.061 1.091.183c.339.12.655.326.946.617l24.509 24.509c.679.679 1.018 1.527 1.018 2.545s-.364 1.891-1.091 2.618c-.727.727-1.576 1.091-2.545 1.091s-1.818-.364-2.545-1.091L27.564 9.09 6.182 30.472c-.679.679-1.515 1.018-2.508 1.018-.995 0-1.856-.364-2.583-1.091S0 28.823 0 27.854c0-.97.364-1.818 1.091-2.545z"/></symbol><symbol id="icon-arrow" viewBox="0 0 56 32"><path fill="#4f2ee8" style="fill:var(--color2,#4f2ee8)" d="M25.397 21.134A3.675 3.675 0 0 0 28 22.219a3.67 3.67 0 0 0 2.603-1.085l16.794-16.83A3.675 3.675 0 0 1 50 3.219a3.67 3.67 0 0 1 2.603 6.255l-16.83 16.83a10.998 10.998 0 0 1-15.546 0L3.397 9.474a3.669 3.669 0 0 1-.791-3.975A3.659 3.659 0 0 1 4.59 3.5a3.651 3.651 0 0 1 2.82 0c.447.186.852.459 1.193.803l16.793 16.83z"/></symbol></defs></svg>