<svg id="shop" width="14" height="18" viewBox="0 0 14 18" fill="none" xmlns="http://www.w3.org/2000/svg">
<path d="M12.833 4.83335H10.333V4.00002C10.333 3.11596 9.98181 2.26812 9.35669 1.643C8.73157 1.01788 7.88373 0.666687 6.99967 0.666687C6.11562 0.666687 5.26777 1.01788 4.64265 1.643C4.01753 2.26812 3.66634 3.11596 3.66634 4.00002V4.83335H1.16634C0.945327 4.83335 0.733366 4.92115 0.577086 5.07743C0.420805 5.23371 0.333008 5.44567 0.333008 5.66669V14.8334C0.333008 15.4964 0.5964 16.1323 1.06524 16.6011C1.53408 17.07 2.16997 17.3334 2.83301 17.3334H11.1663C11.8294 17.3334 12.4653 17.07 12.9341 16.6011C13.4029 16.1323 13.6663 15.4964 13.6663 14.8334V5.66669C13.6663 5.44567 13.5785 5.23371 13.4223 5.07743C13.266 4.92115 13.054 4.83335 12.833 4.83335ZM5.33301 4.00002C5.33301 3.55799 5.5086 3.13407 5.82116 2.82151C6.13372 2.50895 6.55764 2.33335 6.99967 2.33335C7.4417 2.33335 7.86562 2.50895 8.17818 2.82151C8.49074 3.13407 8.66634 3.55799 8.66634 4.00002V4.83335H5.33301V4.00002ZM11.9997 14.8334C11.9997 15.0544 11.9119 15.2663 11.7556 15.4226C11.5993 15.5789 11.3874 15.6667 11.1663 15.6667H2.83301C2.61199 15.6667 2.40003 15.5789 2.24375 15.4226C2.08747 15.2663 1.99967 15.0544 1.99967 14.8334V6.50002H3.66634V7.33335C3.66634 7.55437 3.75414 7.76633 3.91042 7.92261C4.0667 8.07889 4.27866 8.16669 4.49967 8.16669C4.72069 8.16669 4.93265 8.07889 5.08893 7.92261C5.24521 7.76633 5.33301 7.55437 5.33301 7.33335V6.50002H8.66634V7.33335C8.66634 7.55437 8.75414 7.76633 8.91042 7.92261C9.0667 8.07889 9.27866 8.16669 9.49967 8.16669C9.72069 8.16669 9.93265 8.07889 10.0889 7.92261C10.2452 7.76633 10.333 7.55437 10.333 7.33335V6.50002H11.9997V14.8334Z" fill="white"/>
</svg>
